<mxfile host="app.diagrams.net" modified="2023-06-06T09:12:12.504Z" agent="Mozilla/5.0 (Windows NT 10.0; Win64; x64) AppleWebKit/537.36 (KHTML, like Gecko) Chrome/114.0.0.0 Safari/537.36" version="21.3.2" etag="BjQDQXoU3pZqF2rZmVIo" type="github">
  <diagram name="Страница 1" id="Kf_7z5dS-pd4Zkm5Exq2">
    <mxGraphModel>
      <root>
        <mxCell id="0" />
        <mxCell id="1" parent="0" />
      </root>
    </mxGraphModel>
  </diagram>
</mxfile>
